<svg width="180" height="20" viewBox="0 0 180 20" fill="none" xmlns="http://www.w3.org/2000/svg">
<path d="M0.264205 15.5V0.954545H6.08807C7.15814 0.954545 8.05066 1.11316 8.76562 1.4304C9.48059 1.74763 10.018 2.18797 10.3778 2.75142C10.7377 3.31013 10.9176 3.95407 10.9176 4.68324C10.9176 5.25142 10.804 5.75095 10.5767 6.18182C10.3494 6.60795 10.0369 6.95833 9.6392 7.23295C9.24621 7.50284 8.7964 7.6946 8.28977 7.80824V7.95028C8.84375 7.97396 9.36222 8.13021 9.84517 8.41903C10.3329 8.70786 10.7282 9.11269 11.0312 9.63352C11.3343 10.1496 11.4858 10.7652 11.4858 11.4801C11.4858 12.2519 11.294 12.9408 10.9105 13.5469C10.5317 14.1482 9.97064 14.6241 9.22727 14.9744C8.4839 15.3248 7.56771 15.5 6.47869 15.5H0.264205ZM3.33949 12.9858H5.84659C6.7036 12.9858 7.3286 12.8224 7.72159 12.4957C8.11458 12.1643 8.31108 11.724 8.31108 11.1747C8.31108 10.7723 8.21402 10.4171 8.01989 10.1094C7.82576 9.80161 7.54877 9.56013 7.18892 9.38494C6.83381 9.20975 6.41004 9.12216 5.91761 9.12216H3.33949V12.9858ZM3.33949 7.04119H5.61932C6.04072 7.04119 6.41477 6.9678 6.74148 6.82102C7.07292 6.66951 7.33333 6.45644 7.52273 6.18182C7.71686 5.9072 7.81392 5.57812 7.81392 5.1946C7.81392 4.66903 7.62689 4.24527 7.25284 3.9233C6.88352 3.60133 6.35795 3.44034 5.67614 3.44034H3.33949V7.04119ZM13.43 4.59091H16.4556V16.0398C16.4556 16.8826 16.2899 17.5644 15.9585 18.0852C15.627 18.6061 15.1512 18.9872 14.5309 19.2287C13.9154 19.4702 13.1791 19.5909 12.3221 19.5909C12.2179 19.5909 12.1185 19.5885 12.0238 19.5838C11.9244 19.5838 11.8202 19.5814 11.7113 19.5767V17.2116C11.7918 17.2164 11.8628 17.2188 11.9244 17.2188C11.9812 17.2235 12.0427 17.2259 12.109 17.2259C12.5967 17.2259 12.9376 17.1217 13.1317 16.9134C13.3306 16.7098 13.43 16.402 13.43 15.9901V4.59091ZM14.9357 3.18466C14.4906 3.18466 14.1071 3.03551 13.7852 2.73722C13.4632 2.43419 13.3022 2.07197 13.3022 1.65057C13.3022 1.2339 13.4632 0.87642 13.7852 0.578125C14.1071 0.275094 14.4906 0.123579 14.9357 0.123579C15.3903 0.123579 15.7762 0.275094 16.0934 0.578125C16.4154 0.87642 16.5763 1.2339 16.5763 1.65057C16.5763 2.07197 16.4154 2.43419 16.0934 2.73722C15.7762 3.03551 15.3903 3.18466 14.9357 3.18466ZM21.9901 15.706C21.294 15.706 20.6738 15.5852 20.1293 15.3438C19.5848 15.0975 19.1539 14.7353 18.8366 14.2571C18.5241 13.7741 18.3679 13.1728 18.3679 12.4531C18.3679 11.8471 18.4792 11.3381 18.7017 10.9261C18.9242 10.5142 19.2273 10.1828 19.6108 9.93182C19.9943 9.68087 20.4299 9.49148 20.9176 9.36364C21.41 9.2358 21.9261 9.14583 22.4659 9.09375C23.1004 9.02746 23.6117 8.96591 24 8.90909C24.3883 8.84754 24.67 8.75758 24.8452 8.6392C25.0204 8.52083 25.108 8.34564 25.108 8.11364V8.07102C25.108 7.62121 24.9659 7.2732 24.6818 7.02699C24.4025 6.78078 24.0047 6.65767 23.4886 6.65767C22.9441 6.65767 22.5109 6.77841 22.1889 7.01989C21.867 7.25663 21.6539 7.55492 21.5497 7.91477L18.7514 7.6875C18.8935 7.02462 19.1728 6.4517 19.5895 5.96875C20.0062 5.48106 20.5436 5.10701 21.2017 4.84659C21.8646 4.58144 22.6316 4.44886 23.5028 4.44886C24.1089 4.44886 24.6889 4.51989 25.2429 4.66193C25.8016 4.80398 26.2964 5.02415 26.7273 5.32244C27.1629 5.62074 27.5062 6.00426 27.7571 6.47301C28.008 6.93703 28.1335 7.49337 28.1335 8.14205V15.5H25.2642V13.9872H25.179C25.0038 14.3281 24.7694 14.6288 24.4759 14.8892C24.1823 15.1449 23.8295 15.3461 23.4176 15.4929C23.0057 15.6349 22.5298 15.706 21.9901 15.706ZM22.8565 13.6179C23.3016 13.6179 23.6946 13.5303 24.0355 13.3551C24.3764 13.1752 24.6439 12.9337 24.8381 12.6307C25.0322 12.3277 25.1293 11.9844 25.1293 11.6009V10.4432C25.0346 10.5047 24.9044 10.5616 24.7386 10.6136C24.5777 10.661 24.3954 10.706 24.1918 10.7486C23.9882 10.7865 23.7846 10.822 23.581 10.8551C23.3774 10.8835 23.1927 10.9096 23.027 10.9332C22.6719 10.9853 22.3617 11.0682 22.0966 11.1818C21.8314 11.2955 21.6255 11.4493 21.4787 11.6435C21.3319 11.8329 21.2585 12.0696 21.2585 12.3537C21.2585 12.7656 21.4077 13.0805 21.706 13.2983C22.009 13.5114 22.3925 13.6179 22.8565 13.6179ZM30.4808 15.5V4.59091H33.4141V6.49432H33.5277C33.7266 5.81723 34.0604 5.30587 34.5291 4.96023C34.9979 4.60985 35.5376 4.43466 36.1484 4.43466C36.3 4.43466 36.4633 4.44413 36.6385 4.46307C36.8137 4.48201 36.9676 4.50805 37.1001 4.54119V7.22585C36.9581 7.18324 36.7616 7.14536 36.5107 7.11222C36.2597 7.07907 36.0301 7.0625 35.8217 7.0625C35.3767 7.0625 34.9789 7.15956 34.6286 7.35369C34.2829 7.54309 34.0083 7.80824 33.8047 8.14915C33.6058 8.49006 33.5064 8.88305 33.5064 9.32812V15.5H30.4808ZM41.4059 12.3608L41.413 8.73153H41.8533L45.3477 4.59091H48.8207L44.1261 10.0739H43.4087L41.4059 12.3608ZM38.6644 15.5V0.954545H41.69V15.5H38.6644ZM45.4826 15.5L42.2724 10.7486L44.2894 8.6108L49.0266 15.5H45.4826ZM54.8274 15.7131C53.7053 15.7131 52.7393 15.4858 51.9297 15.0312C51.1248 14.572 50.5045 13.9233 50.0689 13.0852C49.6333 12.2424 49.4155 11.2457 49.4155 10.0952C49.4155 8.97301 49.6333 7.98816 50.0689 7.14062C50.5045 6.29309 51.1177 5.63258 51.9084 5.15909C52.7038 4.68561 53.6366 4.44886 54.7067 4.44886C55.4264 4.44886 56.0964 4.56487 56.7166 4.79688C57.3416 5.02415 57.8861 5.36742 58.3501 5.8267C58.8189 6.28598 59.1835 6.86364 59.4439 7.55966C59.7043 8.25095 59.8345 9.06061 59.8345 9.98864V10.8196H50.6229V8.9446H56.9865C56.9865 8.509 56.8918 8.12311 56.7024 7.78693C56.513 7.45076 56.2502 7.18797 55.9141 6.99858C55.5826 6.80445 55.1967 6.70739 54.7564 6.70739C54.2971 6.70739 53.8899 6.81392 53.5348 7.02699C53.1844 7.23532 52.9098 7.51705 52.7109 7.87216C52.5121 8.22254 52.4103 8.61316 52.4055 9.04403V10.8267C52.4055 11.3665 52.505 11.8329 52.7038 12.2259C52.9074 12.6188 53.1939 12.9219 53.5632 13.1349C53.9325 13.348 54.3705 13.4545 54.8771 13.4545C55.2133 13.4545 55.5211 13.4072 55.8004 13.3125C56.0798 13.2178 56.3189 13.0758 56.5178 12.8864C56.7166 12.697 56.8681 12.465 56.9723 12.1903L59.7706 12.375C59.6286 13.0473 59.3374 13.6345 58.897 14.1364C58.4614 14.6335 57.898 15.0218 57.2067 15.3011C56.5201 15.5758 55.727 15.7131 54.8274 15.7131ZM66.4947 15.5V0.954545H69.57V6.95597H75.8129V0.954545H78.881V15.5H75.8129V9.49148H69.57V15.5H66.4947ZM86.2887 15.7131C85.1855 15.7131 84.2314 15.4787 83.4265 15.0099C82.6263 14.5365 82.0084 13.8783 81.5728 13.0355C81.1372 12.188 80.9194 11.2055 80.9194 10.0881C80.9194 8.96117 81.1372 7.97633 81.5728 7.13352C82.0084 6.28598 82.6263 5.62784 83.4265 5.15909C84.2314 4.68561 85.1855 4.44886 86.2887 4.44886C87.3919 4.44886 88.3436 4.68561 89.1438 5.15909C89.9487 5.62784 90.569 6.28598 91.0046 7.13352C91.4402 7.97633 91.658 8.96117 91.658 10.0881C91.658 11.2055 91.4402 12.188 91.0046 13.0355C90.569 13.8783 89.9487 14.5365 89.1438 15.0099C88.3436 15.4787 87.3919 15.7131 86.2887 15.7131ZM86.3029 13.3693C86.8048 13.3693 87.2238 13.2273 87.56 12.9432C87.8962 12.6544 88.1495 12.2614 88.32 11.7642C88.4951 11.267 88.5827 10.7012 88.5827 10.0668C88.5827 9.43229 88.4951 8.86648 88.32 8.36932C88.1495 7.87216 87.8962 7.47917 87.56 7.19034C87.2238 6.90151 86.8048 6.7571 86.3029 6.7571C85.7963 6.7571 85.3701 6.90151 85.0245 7.19034C84.6836 7.47917 84.4255 7.87216 84.2504 8.36932C84.0799 8.86648 83.9947 9.43229 83.9947 10.0668C83.9947 10.7012 84.0799 11.267 84.2504 11.7642C84.4255 12.2614 84.6836 12.6544 85.0245 12.9432C85.3701 13.2273 85.7963 13.3693 86.3029 13.3693ZM96.6509 0.954545V15.5H93.6254V0.954545H96.6509ZM99.0746 15.5V4.59091H101.958V6.51562H102.086C102.313 5.87642 102.692 5.37216 103.222 5.00284C103.753 4.63352 104.387 4.44886 105.126 4.44886C105.874 4.44886 106.511 4.63589 107.036 5.00994C107.562 5.37926 107.912 5.88116 108.087 6.51562H108.201C108.424 5.89062 108.826 5.3911 109.408 5.01705C109.996 4.63826 110.689 4.44886 111.489 4.44886C112.507 4.44886 113.334 4.7732 113.968 5.42188C114.607 6.06581 114.927 6.97964 114.927 8.16335V15.5H111.908V8.75994C111.908 8.15388 111.747 7.69934 111.425 7.39631C111.103 7.09328 110.701 6.94176 110.218 6.94176C109.669 6.94176 109.24 7.11695 108.933 7.46733C108.625 7.81297 108.471 8.26989 108.471 8.83807V15.5H105.538V8.69602C105.538 8.16098 105.384 7.73485 105.076 7.41761C104.773 7.10038 104.373 6.94176 103.876 6.94176C103.54 6.94176 103.237 7.02699 102.967 7.19744C102.701 7.36316 102.491 7.59754 102.335 7.90057C102.178 8.19886 102.1 8.54924 102.1 8.9517V15.5H99.0746Z" fill="black"/>
<path d="M122.002 0.954545H125.795L129.801 10.7273H129.971L133.977 0.954545H137.77V15.5H134.787V6.03267H134.666L130.902 15.429H128.87L125.106 5.99716H124.985V15.5H122.002V0.954545ZM145.218 15.7131C144.096 15.7131 143.13 15.4858 142.32 15.0312C141.515 14.572 140.895 13.9233 140.46 13.0852C140.024 12.2424 139.806 11.2457 139.806 10.0952C139.806 8.97301 140.024 7.98816 140.46 7.14062C140.895 6.29309 141.508 5.63258 142.299 5.15909C143.094 4.68561 144.027 4.44886 145.097 4.44886C145.817 4.44886 146.487 4.56487 147.107 4.79688C147.732 5.02415 148.277 5.36742 148.741 5.8267C149.21 6.28598 149.574 6.86364 149.835 7.55966C150.095 8.25095 150.225 9.06061 150.225 9.98864V10.8196H141.013V8.9446H147.377C147.377 8.509 147.282 8.12311 147.093 7.78693C146.904 7.45076 146.641 7.18797 146.305 6.99858C145.973 6.80445 145.587 6.70739 145.147 6.70739C144.688 6.70739 144.281 6.81392 143.925 7.02699C143.575 7.23532 143.3 7.51705 143.102 7.87216C142.903 8.22254 142.801 8.61316 142.796 9.04403V10.8267C142.796 11.3665 142.896 11.8329 143.094 12.2259C143.298 12.6188 143.585 12.9219 143.954 13.1349C144.323 13.348 144.761 13.4545 145.268 13.4545C145.604 13.4545 145.912 13.4072 146.191 13.3125C146.47 13.2178 146.71 13.0758 146.908 12.8864C147.107 12.697 147.259 12.465 147.363 12.1903L150.161 12.375C150.019 13.0473 149.728 13.6345 149.288 14.1364C148.852 14.6335 148.289 15.0218 147.597 15.3011C146.911 15.5758 146.118 15.7131 145.218 15.7131ZM156.219 15.6776C155.391 15.6776 154.64 15.4645 153.968 15.0384C153.3 14.6075 152.77 13.9754 152.377 13.142C151.989 12.304 151.795 11.2765 151.795 10.0597C151.795 8.80966 151.996 7.77036 152.398 6.94176C152.801 6.10843 153.336 5.4858 154.004 5.07386C154.676 4.6572 155.412 4.44886 156.212 4.44886C156.823 4.44886 157.332 4.55303 157.739 4.76136C158.151 4.96496 158.483 5.22064 158.734 5.52841C158.989 5.83144 159.183 6.12973 159.316 6.4233H159.408V0.954545H162.427V15.5H159.444V13.7528H159.316C159.174 14.0559 158.973 14.3565 158.712 14.6548C158.457 14.9484 158.123 15.1922 157.711 15.3864C157.304 15.5805 156.807 15.6776 156.219 15.6776ZM157.178 13.2699C157.666 13.2699 158.078 13.1373 158.414 12.8722C158.755 12.6023 159.015 12.2259 159.195 11.7429C159.38 11.2599 159.472 10.6941 159.472 10.0455C159.472 9.39678 159.382 8.83333 159.202 8.35511C159.022 7.87689 158.762 7.50758 158.421 7.24716C158.08 6.98674 157.666 6.85653 157.178 6.85653C156.681 6.85653 156.262 6.99148 155.921 7.26136C155.58 7.53125 155.322 7.9053 155.147 8.38352C154.972 8.86174 154.884 9.41572 154.884 10.0455C154.884 10.6799 154.972 11.241 155.147 11.7287C155.327 12.2116 155.585 12.5904 155.921 12.8651C156.262 13.1349 156.681 13.2699 157.178 13.2699ZM164.914 15.5V4.59091H167.94V15.5H164.914ZM166.434 3.18466C165.984 3.18466 165.599 3.03551 165.277 2.73722C164.959 2.43419 164.801 2.07197 164.801 1.65057C164.801 1.2339 164.959 0.87642 165.277 0.578125C165.599 0.275094 165.984 0.123579 166.434 0.123579C166.884 0.123579 167.268 0.275094 167.585 0.578125C167.907 0.87642 168.068 1.2339 168.068 1.65057C168.068 2.07197 167.907 2.43419 167.585 2.73722C167.268 3.03551 166.884 3.18466 166.434 3.18466ZM173.474 15.706C172.778 15.706 172.158 15.5852 171.614 15.3438C171.069 15.0975 170.638 14.7353 170.321 14.2571C170.009 13.7741 169.852 13.1728 169.852 12.4531C169.852 11.8471 169.964 11.3381 170.186 10.9261C170.409 10.5142 170.712 10.1828 171.095 9.93182C171.479 9.68087 171.914 9.49148 172.402 9.36364C172.894 9.2358 173.411 9.14583 173.95 9.09375C174.585 9.02746 175.096 8.96591 175.484 8.90909C175.873 8.84754 176.154 8.75758 176.33 8.6392C176.505 8.52083 176.592 8.34564 176.592 8.11364V8.07102C176.592 7.62121 176.45 7.2732 176.166 7.02699C175.887 6.78078 175.489 6.65767 174.973 6.65767C174.429 6.65767 173.995 6.77841 173.673 7.01989C173.351 7.25663 173.138 7.55492 173.034 7.91477L170.236 7.6875C170.378 7.02462 170.657 6.4517 171.074 5.96875C171.491 5.48106 172.028 5.10701 172.686 4.84659C173.349 4.58144 174.116 4.44886 174.987 4.44886C175.593 4.44886 176.173 4.51989 176.727 4.66193C177.286 4.80398 177.781 5.02415 178.212 5.32244C178.647 5.62074 178.991 6.00426 179.241 6.47301C179.492 6.93703 179.618 7.49337 179.618 8.14205V15.5H176.749V13.9872H176.663C176.488 14.3281 176.254 14.6288 175.96 14.8892C175.667 15.1449 175.314 15.3461 174.902 15.4929C174.49 15.6349 174.014 15.706 173.474 15.706ZM174.341 13.6179C174.786 13.6179 175.179 13.5303 175.52 13.3551C175.861 13.1752 176.128 12.9337 176.322 12.6307C176.517 12.3277 176.614 11.9844 176.614 11.6009V10.4432C176.519 10.5047 176.389 10.5616 176.223 10.6136C176.062 10.661 175.88 10.706 175.676 10.7486C175.473 10.7865 175.269 10.822 175.065 10.8551C174.862 10.8835 174.677 10.9096 174.511 10.9332C174.156 10.9853 173.846 11.0682 173.581 11.1818C173.316 11.2955 173.11 11.4493 172.963 11.6435C172.816 11.8329 172.743 12.0696 172.743 12.3537C172.743 12.7656 172.892 13.0805 173.19 13.2983C173.493 13.5114 173.877 13.6179 174.341 13.6179Z" fill="#FFC09F"/>
</svg>
