<svg width="50" height="50" viewBox="0 0 50 50" fill="none" xmlns="http://www.w3.org/2000/svg">
<path d="M16.2498 4.16663H33.7499C40.4165 4.16663 45.8332 9.5833 45.8332 16.25V33.75C45.8332 36.9547 44.5601 40.0281 42.2941 42.2942C40.028 44.5602 36.9546 45.8333 33.7499 45.8333H16.2498C9.58317 45.8333 4.1665 40.4166 4.1665 33.75V16.25C4.1665 13.0453 5.43957 9.97182 7.70563 7.70575C9.9717 5.43969 13.0451 4.16663 16.2498 4.16663ZM15.8332 8.33329C13.8441 8.33329 11.9364 9.12347 10.5299 10.53C9.12335 11.9365 8.33317 13.8442 8.33317 15.8333V34.1666C8.33317 38.3125 11.6873 41.6666 15.8332 41.6666H34.1665C36.1556 41.6666 38.0633 40.8765 39.4698 39.4699C40.8763 38.0634 41.6665 36.1558 41.6665 34.1666V15.8333C41.6665 11.6875 38.3124 8.33329 34.1665 8.33329H15.8332ZM35.9374 11.4583C36.628 11.4583 37.2904 11.7327 37.7788 12.221C38.2672 12.7094 38.5415 13.3718 38.5415 14.0625C38.5415 14.7531 38.2672 15.4155 37.7788 15.9039C37.2904 16.3923 36.628 16.6666 35.9374 16.6666C35.2467 16.6666 34.5843 16.3923 34.0959 15.9039C33.6075 15.4155 33.3332 14.7531 33.3332 14.0625C33.3332 13.3718 33.6075 12.7094 34.0959 12.221C34.5843 11.7327 35.2467 11.4583 35.9374 11.4583ZM24.9998 14.5833C27.7625 14.5833 30.412 15.6808 32.3655 17.6343C34.319 19.5878 35.4165 22.2373 35.4165 25C35.4165 27.7626 34.319 30.4122 32.3655 32.3657C30.412 34.3192 27.7625 35.4166 24.9998 35.4166C22.2372 35.4166 19.5877 34.3192 17.6341 32.3657C15.6806 30.4122 14.5832 27.7626 14.5832 25C14.5832 22.2373 15.6806 19.5878 17.6341 17.6343C19.5877 15.6808 22.2372 14.5833 24.9998 14.5833ZM24.9998 18.75C23.3422 18.75 21.7525 19.4084 20.5804 20.5805C19.4083 21.7527 18.7498 23.3424 18.7498 25C18.7498 26.6576 19.4083 28.2473 20.5804 29.4194C21.7525 30.5915 23.3422 31.25 24.9998 31.25C26.6574 31.25 28.2472 30.5915 29.4193 29.4194C30.5914 28.2473 31.2498 26.6576 31.2498 25C31.2498 23.3424 30.5914 21.7527 29.4193 20.5805C28.2472 19.4084 26.6574 18.75 24.9998 18.75Z" fill="black"/>
</svg>
